<?xml version="1.0" encoding="UTF-8"?>
<svg id="Layer_2" data-name="Layer 2" xmlns="http://www.w3.org/2000/svg" viewBox="0 0 641.65 692.32">
  <defs>
    <style>
      .cls-1 {
        fill: #9dc644;
      }

      .cls-2 {
        fill: red;
      }
    </style>
  </defs>
  <g id="_1_Layer" data-name="1 – Layer">
    <g>
      <path class="cls-2" d="M320.83,691.82c-40.94-4.41-80.78-15.85-118.41-34-37.85-18.25-71.56-42.37-100.21-71.69C35.67,518.03.5,428.96.5,328.57c0-47.35,15.64-90.16,44.04-120.55,29.21-31.26,69.23-47.78,115.73-47.78,40.38,0,75.89,10.21,105.54,30.36,21.97,14.93,40.34,34.92,54.59,59.41l.43.74.43-.74c14.25-24.49,32.61-44.48,54.59-59.41,29.65-20.15,65.16-30.36,105.53-30.36,46.5,0,86.52,16.52,115.73,47.78,28.4,30.39,44.04,73.2,44.04,120.55,0,100.39-35.17,189.45-101.71,257.56-28.64,29.32-62.36,53.44-100.21,71.69-37.63,18.14-77.47,29.58-118.41,34Z"/>
      <path d="M481.38,160.73c23.34,0,45.24,4.25,65.11,12.62,19.21,8.1,36.12,19.88,50.26,35,14.02,15,24.92,32.88,32.41,53.14,7.63,20.64,11.49,43.21,11.49,67.07,0,100.26-35.12,189.2-101.56,257.21-28.6,29.28-62.27,53.36-100.07,71.59-37.57,18.11-77.33,29.53-118.19,33.95-40.86-4.41-80.63-15.83-118.19-33.94-37.8-18.22-71.46-42.31-100.07-71.59C36.12,517.77,1,428.83,1,328.57c0-23.86,3.87-46.43,11.49-67.07,7.49-20.26,18.39-38.14,32.41-53.14,14.13-15.13,31.04-26.9,50.26-35,19.87-8.38,41.78-12.62,65.11-12.62,40.28,0,75.69,10.19,105.26,30.27,21.91,14.89,40.23,34.82,54.44,59.25l.86,1.49.86-1.49c14.21-24.43,32.52-44.36,54.43-59.25,29.57-20.09,64.98-30.27,105.25-30.27M481.38,159.73c-90.7,0-137.96,51.19-160.55,90.02-22.59-38.83-69.86-90.02-160.56-90.02C64.37,159.73,0,231.3,0,328.57s35.52,190.02,101.85,257.91c57.8,59.17,136.8,96.99,218.98,105.84,82.17-8.85,161.17-46.67,218.98-105.84,66.32-67.89,101.85-156.88,101.85-257.91s-64.37-168.84-160.27-168.84h0Z"/>
    </g>
  </g>
  <g id="_2_Layer" data-name="2 – Layer">
    <path class="cls-1" d="M392.96,105.75c-21.35,24.72-54.48,38.56-87.03,37.16-4.52-.2-8.41-3.35-9.52-7.73-8.04-31.58-1.3-66.84,18.52-92.8C336.06,14.67,371.34-1.47,406.08.11c4.54.21,8.42,3.36,9.55,7.75,8.67,33.68.11,71.52-22.67,97.89Z"/>
  </g>
</svg>